<svg xmlns="http://www.w3.org/2000/svg" viewBox="0 0 468.28 602.18"><defs><style>.a{fill:#030303;}</style></defs><title>NIXON_NIXON_Logo_Retouched</title><path class="a" d="M0.08,555.8V453.47H6.91L71,517.6V453.47H91.5V555.8H84L20.55,492.36V555.8H0.08Z" transform="translate(0 0)"/><rect class="a" y="271.18" width="468.28" height="14.48"/><rect class="a" y="587.71" width="468.28" height="14.48"/><path class="a" d="M187.6,366.88l-35.82-49h24l23.88,32.54,23.88-32.54h24l-35.82,49,39.09,53.28H226.56l-26.88-36.77L172.8,420.16H148.51Z" transform="translate(0 0)"/><path class="a" d="M273.63,405.46Q259,390.76,259,369t14.67-36.5q14.67-14.67,36.5-14.67t36.5,14.67q14.67,14.67,14.67,36.5t-14.67,36.5q-14.67,14.67-36.5,14.67T273.63,405.46Zm36.57-4.4q13.57,0,22.1-9.21T340.82,369q0-13.64-8.53-22.85t-22.24-9.21q-13.58,0-22.1,9.21T279.43,369q0,13.65,8.53,22.85T310.19,401.06Z" transform="translate(0 0)"/><path class="a" d="M376.5,420.16V317.83h6.82L447.45,382V317.83h20.47V420.16h-7.5L397,356.72v63.44H376.5Z" transform="translate(0 0)"/><path class="a" d="M0.08,420.16V317.83H6.91L71,382V317.83H91.5V420.16H84L20.55,356.72v63.44H0.08Z" transform="translate(0 0)"/><path class="a" d="M187.6,502.52l-35.82-49h24L199.68,486l23.88-32.54h24l-35.82,49,39.09,53.28H226.56L199.68,519,172.8,555.8H148.51Z" transform="translate(0 0)"/><path class="a" d="M273.63,541.1Q259,526.4,259,504.64t14.67-36.5q14.67-14.67,36.5-14.67t36.5,14.67q14.67,14.67,14.67,36.5t-14.67,36.5Q332,555.8,310.12,555.8T273.63,541.1Zm36.57-4.4q13.57,0,22.1-9.21t8.53-22.85q0-13.64-8.53-22.85t-22.24-9.21q-13.58,0-22.1,9.21t-8.53,22.85q0,13.65,8.53,22.85T310.19,536.7Z" transform="translate(0 0)"/><path class="a" d="M376.5,555.8V453.47h6.82l64.13,64.13V453.47h20.47V555.8h-7.5L397,492.36V555.8H376.5Z" transform="translate(0 0)"/><rect class="a" x="112.08" y="317.92" width="20.44" height="238.09"/><path d="M165.55,281.52c-0.06-.37-0.15.77,0,0h0Z" transform="translate(0 0)"/><path d="M22,39.8c-3-.2-5.87-1.31-8.87,2.44-1.18,1.48-1.14,6.93.36,9.42,0.47,0.86.69,1.21,0.69,1.21s-0.54.13-.85,1.68c-0.19.92,0,2.05,1.17,4.93,1.36,3.24,4.57,8.67,8,9.34a2,2,0,0,0,.27-0.54,1,1,0,0,0,.58-0.6h0c1,3.12,2,6.26,3.22,9.33,1.35,3.51,2.6,7.17,4.65,10.27,2.26,3.42,5.38,6.28,8.32,9.61-1,2.14-3.31,7.27-4.56,9.9,2.1,4.91,11,14.88,14.57,18.57h0a5.77,5.77,0,0,0,.6,2.35c3.29,6.76,9.74,10.9,13.89,17,2.52,3.69,5.82,6.86,8.76,10.27,5.37,6.22,10.77,12.41,16.07,18.68a23.28,23.28,0,0,1,2.82,4.48c0.89,1.74,1.41,3.67,2.33,5.39,3,5.53,8.29,8.42,13.33,11.61a56,56,0,0,1,7.85,5.48c5.38,4.89,10.63,9.94,15.69,15.15,3.1,3.2,5.78,6.81,8.62,10.27,1.43,1.75,2.79,3.56,4.18,5.34l2.57,3.27c0.74,2.32.89,2.19,4,4.66,1.78,1.41,4.69,1.58,5.19,4.6a5.45,5.45,0,0,0,1.72,2.78c2.4,2.22,5.18,4.07,7.36,6.48,2.65,2.93,4.93,6.26,4.21,10.63-0.23,1.43-1.14,3.13-.66,4.24,1.4,3.21.33,6.19-.24,9.2-0.63,3.27-1.77.44-2.27,3.72,0,0.29-.08.49-0.11,0.64a8.6,8.6,0,0,1,0,1H326c-0.51-2.1-1-4-1.4-5.83-0.94-4.13-2,3.77-2.74-.39-1.16-6.61-1.7-13.35-3.21-19.88-1.45-6.3-.17-11.3,4.56-15.64,6.83-6.28,13.72-12.51,20.26-19.08,7.32-7.37,14.19-15.19,21.45-22.62a24.06,24.06,0,0,1,7.63-5.57c5.82-2.39,9.54-6.57,12.31-11.91,1.16-2.23,2-4.66,3.54-6.64,3.92-5.17,8.23-10,12.14-15.2,3.71-4.9,7.05-10.09,12.67-13.13a1.64,1.64,0,0,0,.46-0.39c2.42-2.89,4.81-5.8,7.24-8.67s5.14-5.83,7.53-8.88c1.83-2.33,3.39-4.87,5-7.36a1.84,1.84,0,0,0-.18-1.15,29.43,29.43,0,0,0-2.54-5.91l9.8-15.36-4.88-5.41a15.62,15.62,0,0,1,1.68-2.64c4.09-4.67,8.1-9.38,9.83-15.53,0.94-3.36,1.54-6.85,2.76-10.1a25.54,25.54,0,0,1,2-3.55,1,1,0,0,0,.7.45,2,2,0,0,0,.39.47c3.2-1.46,5-7.49,5.61-11,0.5-3.08,0-3.18-.4-4a9.1,9.1,0,0,0-1.15-2s0.13-.39.38-1.34c0.88-2.77,0-6.32-1.5-7.49-3-2.37-6-2.4-7.16-1.75,2.13-8.5,6.18-15.4,10.42-23A35.5,35.5,0,0,0,462,5.14c0.26-.85-0.46-2-0.73-3a7.79,7.79,0,0,0-2.69.8,14.81,14.81,0,0,0-3.26,3.41A129.17,129.17,0,0,0,448,18.29c-2.08,4.06-4,8.13-7.21,11.47-0.45.47-.4,1.37-0.8,1.92s-1.11,1.28-1.55,1.2c-2-.37-4-1-6.24-1.57a31.55,31.55,0,0,0,1.31-3.46q1.89-7.4,3.64-14.83a74.17,74.17,0,0,0,1.83-9.13A4.43,4.43,0,0,0,437.33.37c-1.61-1-2.79.28-3.39,1.84-1.29,3.35-2.6,6.71-3.77,10.1-1.84,5.36-3.55,10.75-5.33,16.13-1.24,3.75-2.55,7.47-3.71,11.24a7.69,7.69,0,0,0,.12,2.66c0.65,8.26,1.39,16.52,1.9,24.79,0.19,3,.31,6.05-2.88,8a4,4,0,0,0-1.1,1.91l0.93,1-0.07.06c2.85,3,13.26,16.53,18.19,20.77-2.53,4.19-5,8.88-8.23,14.27-3.09-5-7.42-9-11.87-12.86-3.54-3-14-6.75-14.77-6.68-0.2,0-.72,0-1.37.13,3.84-5.64,6.52-8.46,13.57-17.12-0.37-.24-1.42-0.3-1.79-0.54-2.34,3.5-10.81,12.85-15,18.68a1.67,1.67,0,0,0-.39.42c-1.49,2.43-3.42,4.6-4.89,7s-5.14,3.27-4.1,7a2.39,2.39,0,0,1-.71.89c-2.79,3.5-5.61,7-8.36,10.51-1.52,2-2.8,4.1-4.38,6q-4,4.77-8.19,9.32c-1.42,1.53-3.09,2.83-4.61,4.27,0,0-7.87,8.6-8.91,10.35a9.35,9.35,0,0,0-2,1.22,31.73,31.73,0,0,1-12.75,9.93c-5.32,2.46-10.19,5.88-15.35,8.71-2.38,1.3-4.41,2.71-4.85,5.57-0.24,1.55-.17,3.15-0.52,4.66a4.05,4.05,0,0,1-1.53,2.55c-0.47.25-1.87-.61-2.42-1.31-2.7-3.42-8.25-4.31-11.18-1.65-4.56-1.81-7.2-.34-8.19,4.6-0.1.49-.14,1-0.23,1.49-0.63,3.39-2.37,4.19-5.27,2.23a6.77,6.77,0,0,0-7.1-.51q-2.87,1.31-5.73,2.64c-3,1.4-4,.83-5.81-1.79-1.69-2.39-3.66-5.28-6.16-6.21-3.77-1.41-6.76-3.69-10-5.8-1-.64-3.17-1.2-3.51-0.78-1.4,1.78-2.61.52-4,.37-1-.11-2,0.51-3.46.94-3.16-.5-7-1.14-10.82-1.69a3.66,3.66,0,0,0-1.5.56,11.55,11.55,0,0,0,.85,1.29c0.51,0.59,1.08,1.13,1.63,1.69a17.49,17.49,0,0,1-2.55,2.14c-0.73.42-1.93,0.16-2.52,0.66-3,2.53-5.22,2.81-8.28.86a10.13,10.13,0,0,0-1.91-.6c-0.88-.33-1.74-0.72-2.61-1.08a20,20,0,0,1,3-1.3c0.48-.13,1.11.43,1.68,0.47a5.46,5.46,0,0,0,1.55-.34,4.28,4.28,0,0,0-.61-1.46,5,5,0,0,0-1.51-.73c1.18-.71,2.39-0.67,3.43-1.07a7.16,7.16,0,0,0,1.92-1.77c-0.72-.5-1.45-1.43-2.15-1.4a7,7,0,0,0-3.65,1.1,115.89,115.89,0,0,0-9.91,7.71c-2.42,2.17-4.08,5.3-6.7,7.12-2.92,2-4,5-5.06,7.82-1.48,3.9-2.95,4.65-6.21,1.85-3-2.56-6.07-4.88-10.35-4.41-2.3.25-3.35-1-4.17-3a40.46,40.46,0,0,0-3.57-6.55,4.59,4.59,0,0,0-2.51-2A66.13,66.13,0,0,0,162,181.8c-4.4-.27-7.82-1.75-9-6.29-1.9-7.31-7.07-11.14-13.63-13.94a24.81,24.81,0,0,1-7.92-5.29c-4.55-4.69-8.65-9.82-12.91-14.78a64.36,64.36,0,0,0-4.13-5c-3.74-3.56-8-6.62-11.4-10.47-6.26-7.11-12-14.69-18.06-22-0.29-.34-0.63-0.72-1-1.08-3.68-4.59-12.7-16.16-17.33-20.67a6.1,6.1,0,0,0-1.07-.51,0.4,0.4,0,0,1-.36.05,1.28,1.28,0,0,0-.5-0.26c-1-.1-6.73,2.05-6.73,2.05s-1.67-3.64-2-4.6c-1.41-4.22-3-8.42-1.82-13a1.09,1.09,0,0,0,0-.3c-0.29-4.54-.36-9.12-0.93-13.62a99.41,99.41,0,0,0-2.59-13.26c-0.73-2.7-2.22-5.2-3.47-7.74-1.12-2.28-2.35-4.5-3.56-6.74-0.33-.61-0.81-1.15-1.09-1.79C39.47,15.84,36.56,9,33.61,2.18c-3.56,1.88-4.09,3.28-3,6.69,1.73,5.33,3.65,10.61,5.16,16,0.94,3.34,3.07,6.59,1.45,11.05-3.49-2.8-7-5-9.75-8-5.16-5.68-9.81-11.82-14.73-17.72A42,42,0,0,0,8,5.28,3.09,3.09,0,0,0,5.27,5a2.72,2.72,0,0,0-1,2.2,6.36,6.36,0,0,0,1,3.08c3.31,5.15,6.71,10.24,10.09,15.34,2,3.07,4.28,6,6.1,9.23a25.67,25.67,0,0,1,2.5,5.34A7.56,7.56,0,0,0,22,39.8ZM62.88,125c-1.18,1.05-2.67,1.85-4-.1-0.74-1.05-1.93-1.8-2.62-2.88-0.36-.56-0.07-1.54-0.07-2.33a7,7,0,0,1,2,1,4.51,4.51,0,0,1,.91,1.43l4.24,0.2C63.19,123.26,63.41,124.57,62.88,125Zm2.77,7.55c-0.5-.45-0.2-1.78.13-2.8l-0.68-4.52c2.56,1.3,3.92,2.34,3,4.94-0.25.76,0.62,2.05,1.23,2.92a20,20,0,0,1,3,4.74C70.13,136.14,67.77,134.5,65.65,132.6Zm15.3-31.29c-4.95.24-9.65,0.95-13,5.79-1.9,2.77-5.4,4.45-8.19,6.62L59.21,113l4.22-4.6-0.74-.66C59,111.85,55,115.81,51.62,120.2A9.36,9.36,0,0,0,49.71,124a113.6,113.6,0,0,1-13.59-17.27c0.64-1.26,1.9-4,2.31-4.8,2.33-4.6,5.66-9.56,10.23-12.47C53.58,86.38,62.89,82.76,64.8,82,68.62,86.11,76.23,95.72,81,101.31h0Zm93,101.43a2.67,2.67,0,0,1,4.1-1.14l0.73,10.05C175.18,210.13,172.66,205.9,174,202.74Zm18,9.47c1.9-4.69,13-6.81,20.87-4.1Zm70-15.41c-9.45,2.78-18.85,5.74-28.3,8.49a75.05,75.05,0,0,1-8.41,1.63,32,32,0,0,1-4.67,1.17c-1.07.05-2.46,0.31-3.23-.48a0.68,0.68,0,0,1-.1-0.76c0.58-1,2.08-1,3.16-1.07a24.7,24.7,0,0,0,11.72-3.46c4.51-2.45,9.77-3.74,14.85-4.82,5.71-1.22,11.58-1.66,17.38-2.4a20.92,20.92,0,0,1,2.63,0l0.06,1A35.4,35.4,0,0,0,262,196.8Zm6.94,9c1-2,7.17-4.7,10.09-4.41C277.8,204.2,272,206.76,269,205.84Zm44.79-12.15L310,192.43v9.8l-0.61.18-5-11.54-3.36,1.5c1.19-3.71,4-4.65,6.74-2.76a6.13,6.13,0,0,0,4,1C314.72,190.23,314.07,191.76,313.78,193.68Z" transform="translate(0 0)"/></svg>